Coordinates
version=1
nRows=29
nColumns=24
inDegrees=yes

Units are S.I. units (second, meters, Newtons, ...)
Angles are in degrees.

endheader
time	pelvis_tilt	pelvis_list	pelvis_rotation	pelvis_tx	pelvis_ty	pelvis_tz	hip_flexion_r	hip_adduction_r	hip_rotation_r	knee_angle_r	ankle_angle_r	subtalar_angle_r	mtp_angle_r	hip_flexion_l	hip_adduction_l	hip_rotation_l	knee_angle_l	ankle_angle_l	subtalar_angle_l	mtp_angle_l	lumbar_extension	lumbar_bending	lumbar_rotation
      1.75300000	      0.64825838	      8.49212823	     -5.37498267	      1.39933439	      1.00553096	      0.26621224	     17.31569080	    -11.75545339	      2.62337443	    -68.24898492	      6.61917190	     -2.87365330	      4.60851622	      6.56088297	     13.67621831	      8.75514852	    -12.73007143	      3.03815149	    -20.00928248	     -2.94838240	    -11.45200369	     -4.48435749	      1.54405774
      1.75716667	      0.76770965	      8.34836079	     -5.30355603	      1.40385356	      1.00644031	      0.26593467	     17.70768524	    -11.57966689	      2.53905567	    -67.70028549	      7.05506585	     -2.90833574	      4.56364840	      5.87237175	     13.55349701	      8.96808391	    -12.23004458	      3.06777079	    -19.98347903	     -2.94623905	    -11.61198516	     -4.23437772	      1.15588323
      1.76133333	      0.80637278	      8.19546537	     -5.21548570	      1.40829658	      1.00720316	      0.26568175	     18.17667825	    -11.37269244	      2.46402497	    -67.11868527	      7.54340379	     -3.01406499	      4.53462015	      5.30292849	     13.40694816	      9.12879386	    -11.78699551	      3.05679454	    -19.93742900	     -2.94608411	    -11.68155754	     -3.99892773	      0.98246379
      1.76550000	      0.89846315	      8.06975813	     -5.13786049	      1.41278682	      1.00797360	      0.26542119	     18.58220741	    -11.21667494	      2.37421136	    -66.49805542	      7.92068339	     -3.12455669	      4.46849949	      4.65308276	     13.29546789	      9.34127135	    -11.29004210	      3.05771263	    -19.96192654	     -2.94501537	    -11.79698293	     -3.77871541	      0.66124816
      1.76966667	      0.96026453	      7.93351446	     -5.05924371	      1.41722812	      1.00866847	      0.26519473	     19.00790669	    -11.03527773	      2.29724333	    -65.83981994	      8.30343570	     -3.28543788	      4.39159045	      4.05336324	     13.16452207	      9.52281889	    -10.82583370	      3.04312475	    -19.97251457	     -2.94476742	    -11.89190864	     -3.56204588	      0.42849435
      1.77383333	      1.02578611	      7.80028984	     -4.96954899	      1.42171466	      1.00932454	      0.26496803	     19.40863186	    -10.86196386	      2.21123552	    -65.14297775	      8.65545039	     -3.48388533	      4.30231866	      3.44734068	     13.03478786	      9.70591137	    -10.36280350	      3.04010032	    -19.96320682	     -2.94350921	    -11.98481191	     -3.34610008	      0.19127595
      1.77800000	      1.06717717	      7.66980419	     -4.86753078	      1.42613728	      1.00988813	      0.26473084	     19.82970781	    -10.69462446	      2.11419794	    -64.41521569	      8.97819082	     -3.70439578	      4.20701525	      2.88321047	     12.90468910	      9.89271467	     -9.92611778	      3.04681648	    -19.96098744	     -2.94215039	    -12.05318129	     -3.13258458	     -0.05200625
      1.78216667	      1.12315918	      7.55536789	     -4.76285889	      1.43056541	      1.01042687	      0.26452141	     20.22207886	    -10.54516545	      2.02153354	    -63.65345390	      9.26994262	     -3.95411966	      4.10534717	      2.30442186	     12.78819190	     10.07465656	     -9.48601648	      3.04973475	    -19.94666459	     -2.94031817	    -12.13878054	     -2.94164639	     -0.30358658
      1.78633333	      1.15720993	      7.43591346	     -4.65999515	      1.43499657	      1.01088966	      0.26433159	     20.62163131	    -10.38553166	      1.93641687	    -62.85369852	      9.53145038	     -4.22545230	      3.99634604	      1.75236807	     12.66142716	     10.25828414	     -9.05015039	      3.05804092	    -19.94561326	     -2.93771641	    -12.19806904	     -2.75174632	     -0.54023497
      1.79050000	      1.18469464	      7.32160345	     -4.54340473	      1.43938561	      1.01128260	      0.26413645	     21.01889399	    -10.23858854	      1.83677167	    -62.02478987	      9.79710269	     -4.51207973	      3.91349658	      1.23108377	     12.53849568	     10.42197032	     -8.66239422	      3.06692986	    -19.91620170	     -2.93525628	    -12.25953780	     -2.57427591	     -0.74098425
      1.79466667	      1.24624294	      7.22537382	     -4.43857475	      1.44382109	      1.01167779	      0.26394703	     21.37073458	    -10.11593262	      1.75120876	    -61.16713980	      9.93763585	     -4.84344474	      3.77664846	      0.64920245	     12.43553567	     10.63336755	     -8.22266412	      3.08712936	    -19.93134520	     -2.92815020	    -12.34915259	     -2.38080801	     -1.05417166
      1.79883333	      1.23796474	      7.11782260	     -4.30366882	      1.44819552	      1.01193071	      0.26376724	     21.77453360	     -9.97664164	      1.65247238	    -60.27264133	     10.14185533	     -5.15274915	      3.67692725	      0.18011415	     12.31100697	     10.80756119	     -7.85940803	      3.11145188	    -19.90304952	     -2.92164272	    -12.36621469	     -2.21501792	     -1.25354947
      1.80300000	      1.28488665	      7.03719397	     -4.19597538	      1.45257177	      1.01220142	      0.26361371	     22.12492970	     -9.86890274	      1.58001167	    -59.35732492	     10.23374574	     -5.50734771	      3.52988767	     -0.36555630	     12.21712728	     11.00626646	     -7.45064417	      3.14560850	    -19.90352586	     -2.91239668	    -12.44691531	     -2.04653694	     -1.55816677
      1.80716667	      1.30949291	      6.93899494	     -4.06639857	      1.45699354	      1.01242960	      0.26346238	     22.46062371	     -9.74886534	      1.48238175	    -58.39176200	     10.34065824	     -5.84771637	      3.38153411	     -0.88896721	     12.09743153	     11.19675457	     -7.04825388	      3.16960304	    -19.89397709	     -2.90240687	    -12.49558660	     -1.87404473	     -1.81421684
      1.81133333	      1.30377352	      6.86503750	     -3.91959223	      1.46137297	      1.01254018	      0.26327212	     22.82706145	     -9.66604422	      1.37784548	    -57.41709242	     10.47404737	     -6.10788833	      2.75716639	     -1.36819524	     12.00442086	     11.46294976	     -6.66604492	      3.14279236	    -20.00243209	     -2.86142858	    -12.50472557	     -1.70366268	     -2.21394167
      1.81550000	      1.32500219	      6.78216828	     -3.81134609	      1.46571412	      1.01265647	      0.26319268	     23.15996934	     -9.54853388	      1.32392508	    -56.39835520	     10.46733807	     -6.52152413	      2.62619907	     -1.85086230	     11.89435468	     11.58605091	     -6.32249017	      3.23099922	    -19.89165984	     -2.84661435	    -12.57153927	     -1.57434618	     -2.35161946
      1.81966667	      1.32399019	      6.71159412	     -3.67732113	      1.47006904	      1.01270701	      0.26307621	     23.49154219	     -9.46043029	      1.24685624	    -55.35201154	     10.49402379	     -6.85712695	      2.49011243	     -2.31667193	     11.79337681	     11.75899215	     -5.96681689	      3.29162053	    -19.83071462	     -2.83000264	    -12.60073873	     -1.43824071	     -2.60125494
      1.82383333	      1.29332981	      6.64937090	     -3.53242404	      1.47441701	      1.01265980	      0.26295001	     23.84470136	     -9.38956688	      1.15703884	    -54.28016414	     10.52859972	     -7.14855752	      2.40170909	     -2.73508018	     11.69935347	     11.93478758	     -5.64802543	      3.35432357	    -19.77113053	     -2.81809513	    -12.59210001	     -1.31142965	     -2.80311038
      1.82800000	      1.30368392	      6.59776990	     -3.40705260	      1.47876178	      1.01264010	      0.26287135	     24.14412349	     -9.32343466	      1.09963288	    -53.18208860	     10.47449125	     -7.48844421	      2.25864478	     -3.21593488	     11.61227402	     12.10953885	     -5.27654755	      3.41643823	    -19.73536549	     -2.79809571	    -12.63405366	     -1.18546545	     -3.13696933
      1.83216667	      1.25749177	      6.55377122	     -3.28003690	      1.48314879	      1.01248453	      0.26278557	     24.49005881	     -9.27167484	      1.03055376	    -52.05788151	     10.43421455	     -7.76726482	      2.13789525	     -3.61848656	     11.53168380	     12.26844840	     -4.95018746	      3.49738781	    -19.69121295	     -2.77908243	    -12.59943886	     -1.07386397	     -3.36773092
      1.83633333	      1.24801926	      6.50276998	     -3.14192989	      1.48749467	      1.01238109	      0.26270769	     24.76799841	     -9.21937458	      0.95619413	    -50.88911907	     10.39680926	     -8.00476058	      2.05013073	     -4.05861059	     11.43946191	     12.43013535	     -4.62085499	      3.56209947	    -19.60721287	     -2.76342391	    -12.62025664	     -0.96246622	     -3.57961113
      1.84050000	      1.22253445	      6.46976132	     -3.01970220	      1.49182241	      1.01219183	      0.26265247	     25.06342068	     -9.18222181	      0.90190793	    -49.70404887	     10.31674784	     -8.24074728	      1.96942815	     -4.47576000	     11.36483820	     12.58318145	     -4.29704037	      3.64253775	    -19.53423387	     -2.74726291	    -12.62335061	     -0.86643849	     -3.81634942
      1.84466667	      1.18021949	      6.45670764	     -2.90074096	      1.49617822	      1.01191829	      0.26262506	     25.37061070	     -9.16580384	      0.85769939	    -48.51135310	     10.20522775	     -8.48277951	      1.86503452	     -4.88121166	     11.30648930	     12.71548530	     -3.96056190	      3.74759260	    -19.47100716	     -2.72756170	    -12.59378864	     -0.79120045	     -4.12246175
      1.84883333	      1.13685828	      6.43791431	     -2.78711869	      1.50051480	      1.01163863	      0.26260295	     25.65848727	     -9.14778486	      0.80798022	    -47.27266895	     10.10732748	     -8.62565538	      1.79712099	     -5.27903924	     11.23941898	     12.84583349	     -3.62973528	      3.81480049	    -19.36023665	     -2.71270520	    -12.58750968	     -0.71795424	     -4.29681852
      1.85300000	      1.07780991	      6.42911486	     -2.68296178	      1.50489024	      1.01128358	      0.26260774	     25.94915777	     -9.13743956	      0.76818724	    -46.01623436	      9.96929463	     -8.79687422	      1.72019863	     -5.66584679	     11.18049607	     12.95064095	     -3.29096256	      3.92027306	    -19.27248408	     -2.69645307	    -12.54704953	     -0.66002334	     -4.54499312
      1.85716667	      1.02681805	      6.42887277	     -2.57721388	      1.50926250	      1.01091248	      0.26261624	     26.21622100	     -9.14125272	      0.72910925	    -44.73175734	      9.83012302	     -8.89699941	      1.65744069	     -6.05226711	     11.12957680	     13.05636604	     -2.96898145	      4.01795220	    -19.16819046	     -2.68191150	    -12.51513575	     -0.60583999	     -4.76011214
      1.86133333	      0.99853353	      6.43696306	     -2.50169968	      1.51359329	      1.01053378	      0.26266849	     26.45217935	     -9.14191099	      0.72430867	    -43.41726619	      9.64660479	     -9.03802663	      1.57680536	     -6.46448514	     11.08830228	     13.13640290	     -2.63548370	      4.13258899	    -19.05312602	     -2.66101881	    -12.50125446	     -0.55116980	     -5.02068634
      1.86550000	      0.93531139	      6.44944494	     -2.41664319	      1.51798661	      1.01008299	      0.26271626	     26.70393665	     -9.15621036	      0.69688131	    -42.07735679	      9.46820572	     -9.09240574	      1.50863066	     -6.83929586	     11.04769870	     13.21005888	     -2.31048743	      4.24010049	    -18.92695311	     -2.64178527	    -12.45310854	     -0.51301802	     -5.23034488
      1.86966667	      0.86686308	      6.47670840	     -2.33769150	      1.52238164	      1.00957628	      0.26277953	     26.95296010	     -9.18525070	      0.67926644	    -40.72733289	      9.27840392	     -9.10809469	      1.44897788	     -7.20888054	     11.02087907	     13.27291725	     -1.97754966	      4.34031747	    -18.78887801	     -2.62269370	    -12.40560925	     -0.49397324	     -5.42732492
